<mxfile host="app.diagrams.net" modified="2024-03-13T11:50:50.448Z" agent="Mozilla/5.0 (Macintosh; Intel Mac OS X 10_15_7) AppleWebKit/537.36 (KHTML, like Gecko) Chrome/121.0.0.0 Safari/537.36" etag="I67kZSxKjH2lqE-SmG12" version="24.0.4" type="github">
  <diagram id="prtHgNgQTEPvFCAcTncT" name="Page-1">
    <mxGraphModel dx="2261" dy="786" grid="1" gridSize="10" guides="1" tooltips="1" connect="1" arrows="1" fold="1" page="1" pageScale="1" pageWidth="827" pageHeight="1169" math="0" shadow="0">
      <root>
        <mxCell id="0" />
        <mxCell id="1" parent="0" />
        <mxCell id="97E2DQskRWTt1GMvKSj--2" value="" style="rounded=0;whiteSpace=wrap;html=1;" vertex="1" parent="1">
          <mxGeometry x="40" y="250" width="930" height="360" as="geometry" />
        </mxCell>
        <mxCell id="dNxyNK7c78bLwvsdeMH5-11" value="工单服务" style="swimlane;html=1;startSize=20;horizontal=1;containerType=tree;glass=0;fillColor=#fff2cc;strokeColor=#d6b656;" parent="1" vertex="1">
          <mxGeometry x="70" y="320" width="390" height="150" as="geometry">
            <mxRectangle x="270" y="300" width="90" height="30" as="alternateBounds" />
          </mxGeometry>
        </mxCell>
        <mxCell id="97E2DQskRWTt1GMvKSj--22" value="创建工单" style="rounded=0;whiteSpace=wrap;html=1;" vertex="1" parent="dNxyNK7c78bLwvsdeMH5-11">
          <mxGeometry x="20" y="30" width="90" height="40" as="geometry" />
        </mxCell>
        <mxCell id="97E2DQskRWTt1GMvKSj--23" value="工单更新" style="rounded=0;whiteSpace=wrap;html=1;" vertex="1" parent="dNxyNK7c78bLwvsdeMH5-11">
          <mxGeometry x="130" y="30" width="90" height="40" as="geometry" />
        </mxCell>
        <mxCell id="97E2DQskRWTt1GMvKSj--26" value="工单同步" style="rounded=0;whiteSpace=wrap;html=1;" vertex="1" parent="dNxyNK7c78bLwvsdeMH5-11">
          <mxGeometry x="20" y="90" width="90" height="40" as="geometry" />
        </mxCell>
        <mxCell id="97E2DQskRWTt1GMvKSj--27" value="标签管理" style="rounded=0;whiteSpace=wrap;html=1;" vertex="1" parent="dNxyNK7c78bLwvsdeMH5-11">
          <mxGeometry x="130" y="90" width="90" height="40" as="geometry" />
        </mxCell>
        <mxCell id="97E2DQskRWTt1GMvKSj--29" value="权限控制" style="rounded=0;whiteSpace=wrap;html=1;" vertex="1" parent="dNxyNK7c78bLwvsdeMH5-11">
          <mxGeometry x="240" y="90" width="90" height="40" as="geometry" />
        </mxCell>
        <mxCell id="97E2DQskRWTt1GMvKSj--3" value="" style="rounded=0;whiteSpace=wrap;html=1;dashed=1;" vertex="1" parent="1">
          <mxGeometry x="220" y="490" width="470" height="100" as="geometry" />
        </mxCell>
        <mxCell id="97E2DQskRWTt1GMvKSj--4" value="mdb" style="rounded=0;whiteSpace=wrap;html=1;" vertex="1" parent="1">
          <mxGeometry x="240" y="510" width="120" height="60" as="geometry" />
        </mxCell>
        <mxCell id="97E2DQskRWTt1GMvKSj--5" value="redis" style="rounded=0;whiteSpace=wrap;html=1;" vertex="1" parent="1">
          <mxGeometry x="380" y="510" width="120" height="60" as="geometry" />
        </mxCell>
        <mxCell id="97E2DQskRWTt1GMvKSj--6" value="cos" style="rounded=0;whiteSpace=wrap;html=1;" vertex="1" parent="1">
          <mxGeometry x="530" y="510" width="120" height="60" as="geometry" />
        </mxCell>
        <mxCell id="97E2DQskRWTt1GMvKSj--7" value="透视分发系统" style="rounded=0;whiteSpace=wrap;html=1;fillColor=#37d02f;strokeColor=#82b366;fillStyle=hatch;gradientColor=none;" vertex="1" parent="1">
          <mxGeometry x="-120" y="250" width="110" height="170" as="geometry" />
        </mxCell>
        <mxCell id="97E2DQskRWTt1GMvKSj--8" value="天机系统" style="rounded=0;whiteSpace=wrap;html=1;fillColor=#e3aa6d;strokeColor=#d79b00;fillStyle=hatch;" vertex="1" parent="1">
          <mxGeometry x="-120" y="440" width="110" height="170" as="geometry" />
        </mxCell>
        <mxCell id="97E2DQskRWTt1GMvKSj--9" value="" style="shape=flexArrow;endArrow=classic;startArrow=classic;html=1;rounded=0;entryX=0;entryY=0.25;entryDx=0;entryDy=0;" edge="1" parent="1" target="97E2DQskRWTt1GMvKSj--2">
          <mxGeometry width="100" height="100" relative="1" as="geometry">
            <mxPoint x="-10" y="340" as="sourcePoint" />
            <mxPoint x="90" y="240" as="targetPoint" />
          </mxGeometry>
        </mxCell>
        <mxCell id="97E2DQskRWTt1GMvKSj--10" value="" style="shape=flexArrow;endArrow=classic;startArrow=classic;html=1;rounded=0;entryX=0;entryY=0.25;entryDx=0;entryDy=0;" edge="1" parent="1">
          <mxGeometry width="100" height="100" relative="1" as="geometry">
            <mxPoint x="-10" y="530" as="sourcePoint" />
            <mxPoint x="40" y="530" as="targetPoint" />
          </mxGeometry>
        </mxCell>
        <mxCell id="97E2DQskRWTt1GMvKSj--11" value="" style="endArrow=classic;startArrow=classic;html=1;rounded=0;" edge="1" parent="1">
          <mxGeometry width="50" height="50" relative="1" as="geometry">
            <mxPoint x="460" y="390" as="sourcePoint" />
            <mxPoint x="480" y="390" as="targetPoint" />
          </mxGeometry>
        </mxCell>
        <mxCell id="97E2DQskRWTt1GMvKSj--1" value="反馈服务" style="swimlane;html=1;startSize=20;horizontal=1;containerType=tree;glass=0;fillColor=#dae8fc;strokeColor=#6c8ebf;" vertex="1" parent="1">
          <mxGeometry x="480" y="320" width="440" height="150" as="geometry">
            <mxRectangle x="270" y="300" width="90" height="30" as="alternateBounds" />
          </mxGeometry>
        </mxCell>
        <mxCell id="97E2DQskRWTt1GMvKSj--30" value="反馈流水" style="rounded=0;whiteSpace=wrap;html=1;" vertex="1" parent="97E2DQskRWTt1GMvKSj--1">
          <mxGeometry x="40" y="30" width="90" height="40" as="geometry" />
        </mxCell>
        <mxCell id="97E2DQskRWTt1GMvKSj--34" value="客服回复" style="rounded=0;whiteSpace=wrap;html=1;" vertex="1" parent="97E2DQskRWTt1GMvKSj--1">
          <mxGeometry x="40" y="90" width="90" height="40" as="geometry" />
        </mxCell>
        <mxCell id="97E2DQskRWTt1GMvKSj--35" value="功能体验" style="rounded=0;whiteSpace=wrap;html=1;" vertex="1" parent="97E2DQskRWTt1GMvKSj--1">
          <mxGeometry x="150" y="90" width="90" height="40" as="geometry" />
        </mxCell>
        <mxCell id="97E2DQskRWTt1GMvKSj--14" value="" style="rounded=0;whiteSpace=wrap;html=1;dashed=1;" vertex="1" parent="1">
          <mxGeometry x="1020" y="240" width="120" height="360" as="geometry" />
        </mxCell>
        <mxCell id="97E2DQskRWTt1GMvKSj--16" value="apollo" style="rounded=0;whiteSpace=wrap;html=1;fillColor=#97B2FC;strokeColor=#6c8ebf;fillStyle=hatch;" vertex="1" parent="1">
          <mxGeometry x="1037.5" y="270" width="85" height="120" as="geometry" />
        </mxCell>
        <mxCell id="97E2DQskRWTt1GMvKSj--17" value="rainbow" style="rounded=0;whiteSpace=wrap;html=1;fillColor=#E18BE7;strokeColor=#9673a6;fillStyle=hatch;" vertex="1" parent="1">
          <mxGeometry x="1037.5" y="410" width="85" height="130" as="geometry" />
        </mxCell>
        <mxCell id="97E2DQskRWTt1GMvKSj--19" value="" style="shape=flexArrow;endArrow=classic;startArrow=classic;html=1;rounded=0;entryX=0;entryY=0.25;entryDx=0;entryDy=0;" edge="1" parent="1">
          <mxGeometry width="100" height="100" relative="1" as="geometry">
            <mxPoint x="970" y="410" as="sourcePoint" />
            <mxPoint x="1020" y="410" as="targetPoint" />
          </mxGeometry>
        </mxCell>
        <mxCell id="97E2DQskRWTt1GMvKSj--20" value="tapd管理平台" style="rounded=0;whiteSpace=wrap;html=1;fillColor=#e3c800;fontColor=#000000;strokeColor=#B09500;fillStyle=hatch;" vertex="1" parent="1">
          <mxGeometry x="40" y="660" width="930" height="60" as="geometry" />
        </mxCell>
        <mxCell id="97E2DQskRWTt1GMvKSj--21" value="" style="shape=flexArrow;endArrow=classic;startArrow=classic;html=1;rounded=0;exitX=0.472;exitY=0;exitDx=0;exitDy=0;exitPerimeter=0;" edge="1" parent="1" source="97E2DQskRWTt1GMvKSj--20">
          <mxGeometry width="100" height="100" relative="1" as="geometry">
            <mxPoint x="440" y="630" as="sourcePoint" />
            <mxPoint x="480" y="610" as="targetPoint" />
          </mxGeometry>
        </mxCell>
        <mxCell id="97E2DQskRWTt1GMvKSj--25" value="工单分发" style="rounded=0;whiteSpace=wrap;html=1;" vertex="1" parent="1">
          <mxGeometry x="310" y="350" width="90" height="40" as="geometry" />
        </mxCell>
        <mxCell id="97E2DQskRWTt1GMvKSj--31" value="补充信息" style="rounded=0;whiteSpace=wrap;html=1;" vertex="1" parent="1">
          <mxGeometry x="630" y="350" width="90" height="40" as="geometry" />
        </mxCell>
      </root>
    </mxGraphModel>
  </diagram>
</mxfile>
